g face
v 0.500000 -2.500000 0.437500
v -1.500000 -2.500000 0.437500
v 0.500000 0.500000 0.437500
v -1.500000 0.500000 0.437500
vt 0.0000 1.0000
vt 0.0000 0.0000
vt 1.0000 0.0000
vt 1.0000 1.0000
vn 0.0000 0.0000 -1.0000
s off
f 3/1/1 1/2/1 2/3/1 4/4/1
g back
v 0.500000 -2.500000 0.437500
v 0.500000 -2.500000 0.500000
v -1.500000 -2.500000 0.500000
v -1.500000 -2.500000 0.437500
v 0.500000 0.500000 0.437500
v 0.500000 0.500000 0.500000
v -1.500000 0.500000 0.500000
v -1.500000 0.500000 0.437500
vt 0.0000 0.0625
vt 0.0000 0.0000
vt 2.0000 0.0000
vt 2.0000 0.0625
vt 0.0000 0.9375
vt 2.0000 0.9375
vt 2.0000 1.0000
vt 0.0000 1.0000
vt 0.0625 -2.0000
vt 0.0625 1.0000
vt 0.0000 -2.0000
vt 2.0000 -2.0000
vt 2.0000 1.0000
vt 0.0000 1.0000
vt 0.0000 -2.0000
vt 1.0000 -2.0000
vt 1.0000 1.0000
vt 0.9375 1.0000
vt 0.9375 -2.0000
vn 0.0000 -1.0000 0.0000
vn 0.0000 1.0000 0.0000
vn 1.0000 0.0000 0.0000
vn 0.0000 0.0000 1.0000
vn -1.0000 0.0000 0.0000
s off
f 5/5/2 6/6/2 7/7/2 8/8/2
f 9/9/3 12/10/3 11/11/3 10/12/3
f 5/13/4 9/14/4 10/12/4 6/15/4
f 6/16/5 10/17/5 11/18/5 7/19/5
f 7/20/6 11/21/6 12/22/6 8/23/6
